<svg width="127" height="115" viewBox="0 0 127 115" fill="none" xmlns="http://www.w3.org/2000/svg">
<path d="M68.1447 88.4996C70.4167 81.6849 81.4274 72.5956 93.8354 74.3436C99.3687 70.7316 106.286 61.5329 115.725 62.9316C124.258 64.1956 129.027 74.0743 118.891 79.4316C110.361 83.9423 102.049 90.0729 98.9021 93.9169C95.7567 97.7623 88.4167 105.917 81.8927 109.064C72.7527 113.469 51.9501 113.49 42.8047 107.724C34.6634 102.589 31.0954 91.8196 29.3474 85.5276C23.8914 76.2649 15.3914 68.4316 8.26075 64.5569C-7.18592 56.1623 9.55808 42.0983 19.7941 54.3036C23.7127 58.9729 28.6767 63.6316 31.2701 65.0823C34.7074 67.0036 37.3434 64.3423 35.8141 60.5369C32.8914 53.2649 25.7701 43.6636 21.1341 38.6929C5.81408 22.2649 30.9394 11.333 37.4381 30.8849C39.8914 38.2649 45.1141 49.0743 48.7247 54.4316C51.7581 58.9329 54.4914 58.1023 54.3167 51.9849C54.1421 45.8689 50.8154 29.4889 48.2247 21.0983C41.1154 -1.92305 67.6794 -5.69639 67.2127 18.4196C66.9247 33.2823 67.7821 46.9316 69.1021 51.5543C70.7314 57.2636 74.5767 57.4956 76.5581 51.3223C78.8314 44.2369 79.1754 26.9649 78.9847 20.0103C78.4594 0.960948 104.325 -0.203051 98.5581 19.5436C95.6927 29.3516 93.4247 45.8636 93.1354 52.1489C92.8434 58.4983 94.1247 65.6063 93.0767 73.9943" fill="white"/>
<path d="M68.1447 88.4996C70.4167 81.6849 81.4274 72.5956 93.8354 74.3436C99.3687 70.7316 106.286 61.5329 115.725 62.9316C124.258 64.1956 129.027 74.0743 118.891 79.4316C110.361 83.9423 102.049 90.0729 98.9021 93.9169C95.7567 97.7623 88.4167 105.917 81.8927 109.064C72.7527 113.469 51.9501 113.49 42.8047 107.724C34.6634 102.589 31.0954 91.8196 29.3474 85.5276C23.8914 76.2649 15.3914 68.4316 8.26075 64.5569C-7.18592 56.1623 9.55808 42.0983 19.7941 54.3036C23.7127 58.9729 28.6767 63.6316 31.2701 65.0823C34.7074 67.0036 37.3434 64.3423 35.8141 60.5369C32.8914 53.2649 25.7701 43.6636 21.1341 38.6929C5.81408 22.2649 30.9394 11.333 37.4381 30.8849C39.8914 38.2649 45.1141 49.0743 48.7247 54.4316C51.7581 58.9329 54.4914 58.1023 54.3167 51.9849C54.1421 45.8689 50.8154 29.4889 48.2247 21.0983C41.1154 -1.92305 67.6794 -5.69639 67.2127 18.4196C66.9247 33.2823 67.7821 46.9316 69.1021 51.5543C70.7314 57.2636 74.5767 57.4956 76.5581 51.3223C78.8314 44.2369 79.1754 26.9649 78.9847 20.0103C78.4594 0.960948 104.325 -0.203051 98.5581 19.5436C95.6927 29.3516 93.4247 45.8636 93.1354 52.1489C92.8434 58.4983 94.1247 65.6063 93.0767 73.9943" stroke="#292929" stroke-width="3" stroke-linecap="round" stroke-linejoin="round"/>
</svg>
