<svg width="92" height="92" viewBox="0 0 92 92" fill="none" xmlns="http://www.w3.org/2000/svg">
<path d="M39.5101 43.7726C35.2501 39.0646 37.9421 29.7993 47.0061 24.3859C56.1808 18.9073 64.0434 17.5473 69.7034 17.8126C90.2648 18.7793 90.5528 41.7459 89.7234 52.5673C88.8954 63.3886 84.8154 73.4019 77.4008 80.0926C68.7528 87.9006 51.6648 91.1419 39.5634 89.5113C31.4861 88.4219 10.6194 82.4539 6.23544 61.0326L39.5101 43.7726Z" fill="white"/>
<path d="M16.4046 28.2621C12.1233 25.8087 5.08998 30.5674 2.77131 39.2181C0.960642 45.9781 2.18731 56.3461 8.06064 62.8381C16.5806 72.2514 27.918 66.4314 24.994 57.5954C22.534 50.1634 25.0806 33.2341 16.4046 28.2621Z" fill="white"/>
<path d="M16.4046 28.2621C12.1233 25.8087 5.08998 30.5674 2.77131 39.2181C0.960642 45.9781 2.18731 56.3461 8.06064 62.8381C16.5806 72.2514 27.918 66.4314 24.994 57.5954C22.534 50.1634 25.0806 33.2341 16.4046 28.2621Z" stroke="#292929" stroke-width="3" stroke-linecap="round" stroke-linejoin="round"/>
<path d="M32.9762 19.6489C27.9456 12.6636 14.4136 16.8022 12.9962 28.9596C11.7749 39.4462 14.2056 52.3489 21.9069 59.2422C30.6496 67.0689 38.9949 62.4409 39.9922 54.4262C40.9896 46.4102 38.5336 27.3676 32.9762 19.6489Z" fill="white"/>
<path d="M32.9762 19.6489C27.9456 12.6636 14.4136 16.8022 12.9962 28.9596C11.7749 39.4462 14.2056 52.3489 21.9069 59.2422C30.6496 67.0689 38.9949 62.4409 39.9922 54.4262C40.9896 46.4102 38.5336 27.3676 32.9762 19.6489Z" stroke="#292929" stroke-width="3" stroke-linecap="round" stroke-linejoin="round"/>
<path d="M30.5388 23.5955C31.1721 14.7915 35.8214 9.22478 40.0188 7.95945C45.2748 6.37812 54.7428 7.53545 57.3441 16.2848C59.9534 25.0568 58.4121 44.1554 57.2041 50.2954C55.2881 60.0194 42.3721 63.5741 36.2428 52.9608C31.3721 44.5248 29.9134 32.2875 30.5388 23.5955Z" fill="white"/>
<path d="M30.5388 23.5955C31.1721 14.7915 35.8214 9.22478 40.0188 7.95945C45.2748 6.37812 54.7428 7.53545 57.3441 16.2848C59.9534 25.0568 58.4121 44.1554 57.2041 50.2954C55.2881 60.0194 42.3721 63.5741 36.2428 52.9608C31.3721 44.5248 29.9134 32.2875 30.5388 23.5955Z" stroke="#292929" stroke-width="3" stroke-linecap="round" stroke-linejoin="round"/>
<path d="M54.2432 11.5421C57.1418 -0.563211 72.4445 -0.145876 77.4952 7.18879C83.8445 16.4061 80.8805 36.3555 76.8125 46.2328C72.2045 57.4208 58.9872 57.6141 55.5632 45.2555C51.8792 31.9595 52.4272 19.1261 54.2432 11.5421Z" fill="white"/>
<path d="M54.2432 11.5421C57.1418 -0.563211 72.4445 -0.145876 77.4952 7.18879C83.8445 16.4061 80.8805 36.3555 76.8125 46.2328C72.2045 57.4208 58.9872 57.6141 55.5632 45.2555C51.8792 31.9595 52.4272 19.1261 54.2432 11.5421Z" stroke="#292929" stroke-width="3" stroke-linecap="round" stroke-linejoin="round"/>
<path d="M77.4013 80.0929C84.816 73.4009 88.8946 63.3889 89.724 52.5662C90.552 41.7462 90.264 18.7795 69.7026 17.8129C64.0426 17.5475 56.18 18.9062 47.0066 24.3862C37.9413 29.7982 35.2506 39.0649 39.5106 43.7729C42.58 47.1662 53.2746 50.3289 64.6613 43.4942C58.0746 48.1142 53.9746 56.3329 52.6573 62.5369L77.4013 80.0929Z" fill="white"/>
<path d="M6.21584 60.7049C10.5998 82.1249 31.4865 88.4222 39.5638 89.5102C51.6652 91.1422 68.7532 87.8996 77.4012 80.0929C84.8158 73.4009 88.8945 63.3889 89.7238 52.5662C90.5518 41.7462 90.2652 18.7796 69.7025 17.8129C64.0438 17.5476 56.1812 18.9062 47.0065 24.3862C37.9412 29.7982 35.2505 39.0649 39.5105 43.7729C42.5798 47.1662 53.2745 50.3289 64.6612 43.4942C58.0758 48.1142 53.9745 56.3329 52.6585 62.5369" stroke="#292929" stroke-width="3" stroke-linecap="round" stroke-linejoin="round"/>
</svg>
