<svg width="81" height="119" viewBox="0 0 81 119" fill="none" xmlns="http://www.w3.org/2000/svg">
<path d="M76.8652 73.1482C74.6118 63.8149 71.6212 58.8682 71.5559 55.6015C71.2785 41.9895 72.5559 34.1589 76.0559 18.9922C80.8572 -1.81846 56.3705 0.638872 56.7225 19.2135C56.9452 30.9922 55.6118 42.9922 52.5558 53.7682C51.4105 57.8055 46.5958 58.3149 45.2225 54.4349C39.5559 38.4349 37.3892 28.6015 35.7225 14.9349C32.9865 -7.49579 8.85986 2.66021 16.3892 19.6015C20.3892 28.6015 22.8892 36.6015 25.8892 50.9349L8.84652 95.5602C11.3465 101.727 18.0052 109.126 26.0559 113.435C37.0559 119.323 55.7492 117.022 63.7225 112.879C79.2798 104.794 80.8785 81.9175 76.8652 73.1482Z" fill="white"/>
<path d="M12.3333 63.8786C7.56267 62.6172 2 69.0319 2 77.9892C2 84.9879 5.86933 94.6852 13.2227 99.4346C23.8893 106.323 33.3333 97.7666 28.2227 89.9892C23.9227 83.4466 22 66.4346 12.3333 63.8786Z" fill="white"/>
<path d="M12.3333 63.8786C7.56267 62.6172 2 69.0319 2 77.9892C2 84.9879 5.86933 94.6852 13.2227 99.4346C23.8893 106.323 33.3333 97.7666 28.2227 89.9892C23.9227 83.4466 22 66.4346 12.3333 63.8786Z" stroke="#292929" stroke-width="3" stroke-linecap="round" stroke-linejoin="round"/>
<path d="M26.1107 51.2693C19.444 45.8239 7.444 53.3239 9.22133 65.4346C10.7547 75.8786 16.444 87.7133 25.6667 92.3786C36.1373 97.6759 43 91.0453 41.888 83.0453C40.7773 75.0453 33.476 57.2866 26.1107 51.2693Z" fill="white"/>
<path d="M26.1107 51.2693C19.444 45.8239 7.444 53.3239 9.22133 65.4346C10.7547 75.8786 16.444 87.7133 25.6667 92.3786C36.1373 97.6759 43 91.0453 41.888 83.0453C40.7773 75.0453 33.476 57.2866 26.1107 51.2693Z" stroke="#292929" stroke-width="3" stroke-linecap="round" stroke-linejoin="round"/>
<path d="M25.8887 50.9346C22.8887 36.6012 20.3887 28.6012 16.3887 19.6012C8.85934 2.65991 32.986 -7.49609 35.722 14.9346C37.3887 28.6012 39.5553 38.4346 45.222 54.4346C46.5953 58.3146 51.4113 57.8052 52.5553 53.7679C55.6113 42.9919 56.9447 30.9919 56.722 19.2132C56.37 0.638575 80.858 -1.81743 76.0553 18.9919C72.5553 34.1586 71.278 41.9892 71.5553 55.6012C71.638 59.6306 76.1673 66.2119 78.278 80.4346" stroke="#292929" stroke-width="3" stroke-linecap="round" stroke-linejoin="round"/>
<path d="M63.722 112.879C80.6113 104.101 81.0553 77.8786 75.722 71.2119C72.326 66.9679 58.1673 61.5453 51.5007 61.8786C47.486 62.0786 27.222 66.3506 31.6113 76.2119C34.826 83.4319 42.3047 83.3506 51.8047 79.9346C53.0553 80.6839 54.4713 82.1839 55.0553 83.6013C51.138 85.6013 45.9713 91.2679 45.222 95.6013L63.722 112.879Z" fill="white"/>
<path d="M45.222 95.6013C45.9727 91.2679 51.1393 85.6013 55.0553 83.6013C54.4727 82.1839 53.0553 80.6839 51.806 79.9346C42.3047 83.3506 34.826 83.4319 31.6113 76.2119C27.222 66.3506 47.486 62.0786 51.5007 61.8786C58.1673 61.5453 72.326 66.9679 75.722 71.2119C81.0553 77.8786 80.6113 104.101 63.722 112.879C55.75 117.021 37.0553 119.323 26.0553 113.435C18.006 109.127 11.3473 101.727 8.84733 95.5599" stroke="#292929" stroke-width="3" stroke-linecap="round" stroke-linejoin="round"/>
</svg>
